<svg version="1.1" viewBox="0.0 0.0 100.0 151.51968503937007" fill="none" stroke="none" stroke-linecap="square" stroke-miterlimit="10" xmlns:xlink="http://www.w3.org/1999/xlink" xmlns="http://www.w3.org/2000/svg"><clipPath id="p.0"><path d="m0 0l100.0 0l0 151.51968l-100.0 0l0 -151.51968z" clip-rule="nonzero"/></clipPath><g clip-path="url(#p.0)"><path fill="#000000" fill-opacity="0.0" d="m0 0l100.0 0l0 151.51968l-100.0 0z" fill-rule="evenodd"/><path fill="#6fa8dc" d="m38.96063 7.711286l22.078743 0l0 129.10236l-22.078743 0z" fill-rule="evenodd"/><path fill="#6fa8dc" d="m14.611548 87.93438l-14.611548 14.207352l49.834644 49.375328l50.16273 -48.95275l-14.632545 -14.629929l-24.892387 24.351707l-20.427822 0.27033997z" fill-rule="evenodd"/><path fill="#6fa8dc" d="m38.96063 7.5748034l0 0c0 -4.183449 4.9424973 -7.5748034 11.0393715 -7.5748034l0 0c6.096874 0 11.0393715 3.3913548 11.0393715 7.5748034l0 0c0 4.183448 -4.9424973 7.5748034 -11.0393715 7.5748034l0 0c-6.096874 0 -11.0393715 -3.3913555 -11.0393715 -7.5748034z" fill-rule="evenodd"/></g></svg>