<svg version="1.1" viewBox="0.0 0.0 100.0 151.51968503937007" fill="none" stroke="none" stroke-linecap="square" stroke-miterlimit="10" xmlns:xlink="http://www.w3.org/1999/xlink" xmlns="http://www.w3.org/2000/svg"><clipPath id="p.0"><path d="m0 0l100.0 0l0 151.51968l-100.0 0l0 -151.51968z" clip-rule="nonzero"/></clipPath><g clip-path="url(#p.0)"><path fill="#000000" fill-opacity="0.0" d="m0 0l100.0 0l0 151.51968l-100.0 0z" fill-rule="evenodd"/><path fill="#434343" d="m38.96063 6.4251966l22.078743 0l0 129.10236l-22.078743 0z" fill-rule="evenodd"/><path fill="#434343" d="m14.611548 87.93438l-14.611548 14.207352l49.834644 49.375328l50.16273 -48.95275l-14.632545 -14.629929l-24.892387 23.811028l-20.698166 0.27033997z" fill-rule="evenodd"/><path fill="#434343" d="m38.960606 7.5748034l0 0c0 -4.183449 4.9424934 -7.5748034 11.0393715 -7.5748034l0 0c6.096874 0 11.039368 3.3913548 11.039368 7.5748034l0 0c0 4.183448 -4.9424934 7.5748034 -11.039368 7.5748034l0 0c-6.096878 0 -11.0393715 -3.3913555 -11.0393715 -7.5748034z" fill-rule="evenodd"/><path fill="#434343" d="m38.961918 7.5761156l0 0c0 -4.1834483 4.9424934 -7.5748034 11.0393715 -7.5748034l0 0c6.096874 0 11.039368 3.391355 11.039368 7.5748034l0 0c0 4.183448 -4.9424934 7.5748034 -11.039368 7.5748034l0 0c-6.096878 0 -11.0393715 -3.3913555 -11.0393715 -7.5748034z" fill-rule="evenodd"/><path fill="#3d85c6" d="m44.598427 8.976335l10.803146 0l0 111.55906l-10.803146 0z" fill-rule="evenodd"/><path fill="#3d85c6" d="m44.598427 9.902888l0 0c0 -2.330903 2.4183655 -4.220473 5.401573 -4.220473l0 0c2.9832077 0 5.401573 1.8895698 5.401573 4.220473l0 0c0 2.330902 -2.4183655 4.2204723 -5.401573 4.2204723l0 0c-2.9832077 0 -5.401573 -1.8895702 -5.401573 -4.2204723z" fill-rule="evenodd"/><path fill="#3d85c6" d="m14.611548 94.97113l-6.9002624 6.8976364l42.073494 41.803154l42.61417 -41.39633l-6.8976364 -6.629921l-23.947506 22.593178l-22.727036 0.4068222z" fill-rule="evenodd"/></g></svg>