<svg version="1.1" viewBox="0.0 0.0 324.0 398.0" fill="none" stroke="none" stroke-linecap="square" stroke-miterlimit="10" xmlns:xlink="http://www.w3.org/1999/xlink" xmlns="http://www.w3.org/2000/svg"><clipPath id="p.0"><path d="m0 0l324.0 0l0 398.0l-324.0 0l0 -398.0z" clip-rule="nonzero"/></clipPath><g clip-path="url(#p.0)"><path fill="#000000" fill-opacity="0.0" d="m0 0l324.0 0l0 398.0l-324.0 0z" fill-rule="evenodd"/><path fill="#858585" d="m81.32284 37.0l161.35434 0l0 0c9.923691 0 19.440933 3.9421692 26.458023 10.959282c7.0171204 7.017109 10.95929 16.534348 10.95929 26.458038l0 37.417328c0 0.001083374 -8.8500977E-4 0.0019683838 -0.001953125 0.0019683838l-236.18701 -0.0019683838l0 0c-0.001083374 0 -0.001964569 -8.8500977E-4 -0.001964569 -0.0019683838l0.001964569 -37.41536l0 0c0 -20.665012 16.752308 -37.41732 37.417328 -37.41732z" fill-rule="evenodd"/><path fill="#858585" d="m43.90551 122.69029l112.91338 0l0 91.842514l-112.91338 0z" fill-rule="evenodd"/><path fill="#858585" d="m167.1811 122.69029l112.913376 0l0 91.842514l-112.913376 0z" fill-rule="evenodd"/><path fill="#858585" d="m156.8189 317.02887l-77.905396 0l0 0c-9.284691 0 -18.189114 -3.688324 -24.754383 -10.253601c-6.5652733 -6.565277 -10.253605 -15.469696 -10.253605 -24.754395l0 -56.64554l112.91338 0z" fill-rule="evenodd"/><path fill="#858585" d="m167.1811 317.042l77.905396 0l0 0c9.2846985 0 18.189102 -3.688324 24.75438 -10.253601c6.565277 -6.565277 10.253601 -15.469696 10.253601 -24.754395l0 -56.64554l-112.913376 0z" fill-rule="evenodd"/></g></svg>